<?xml version="1.0" encoding="iso-8859-1"?>
<!-- Generator: Adobe Illustrator 19.0.1, SVG Export Plug-In . SVG Version: 6.00 Build 0)  -->
<svg version="1.1" xmlns="http://www.w3.org/2000/svg" xmlns:xlink="http://www.w3.org/1999/xlink" x="0px" y="0px"
	 viewBox="0 0 128 128" style="enable-background:new 0 0 128 128;" xml:space="preserve">
<g id="_x31_1">
	<path style="fill:#E1DEFD;" d="M21.664,88.69l-2.471-0.457l1.484-11.242l0.01,0.166v0.031L21.664,88.69z M16.328,83.842
		l-0.986,3.342l-0.301,1.048l2.471,0.457l1.443-13.837L16.328,83.842z M46.722,96.797l-3.509,1.734l-1.007-1.287l-1.36-1.754
		l-0.592-0.768l-0.301-0.374l-0.301-0.394l-0.426-0.54l-0.446-0.581l-0.727-0.934l-0.052-0.073l-0.509-0.654l-5.335-6.861
		l8.315,7.121l0.488,0.426l2.221,1.9l0.156,0.135l0.405,0.353l0.322,0.27l1.028,0.882l0.841,0.716L46.722,96.797z M54.518,96.485
		l-2.605,2.014l-1.443-1.235l-1.173-1.007l-0.54-0.467l-0.467-0.394l-1.547-1.318l-0.322-0.28l-0.374-0.322l-1.661-1.422
		l-0.291-0.249l-0.062-0.052l-6.955-5.958l10.183,6.239l1.64,1.017l0.644,0.394l0.571,0.343l3.301,2.024L54.518,96.485z
		 M38.708,96.132l-3.259,0.986l-0.737-1.63l-0.654-1.453l-0.239-0.519l-0.208-0.478l-0.062-0.135l-0.426-0.934l-0.55-1.235
		l0.145,0.01l-0.156-0.031l-2.678-5.938l4.775,6.145l0.208,0.27l0.581,0.747l0.955,1.215l0.415,0.55l0.228,0.291l0.82,1.059
		L38.708,96.132z M31.681,93.807l-2.149,0.301l-1.08,0.145l-0.042-0.135l-0.561-1.723l-0.114-0.343l-0.073-0.228l-0.509-1.567
		l-0.228-0.695l-4.038-12.477l1.734,1.069l5.429,12.052l0.145,0.322l0.675,1.484l0.239,0.519l0.073,0.166L31.681,93.807z
		 M25.328,91.347l-1.609-0.332l-0.073-1.069l-0.073-1.069l-0.26-3.758l1.287,3.965l0.311,0.976L25.328,91.347z M93.849,34.556
		l-4.816-3.529l1.671-0.436L93.849,34.556z M116.935,107.997L62.459,96.838l1.194-1.266l52.556,4.661L116.935,107.997z
		 M121.751,98.634l-3.633-0.322l-2.107-0.187l-50.542-4.474l0.093-0.104l49.95-0.768l2.086-0.031l2.491-0.031L121.751,98.634z
		 M124.824,90.568l-3.156,0.052l-2.149,0.031l-2.118,0.031l-2.086,0.031l-47.77,0.727l0.529-0.561l46.649-6.436l2.066-0.28
		l0.882-0.125l2.076-0.291l1.931-0.26L124.824,90.568z M124.45,81.019l-1.505,0.208l-2.149,0.291l-1.609,0.228l-2.076,0.291
		l-0.519,0.062l-2.055,0.291l-42.715,5.886l42.072-12.737l1.287-0.394l0.737-0.218l1.256-0.384l0.467-0.135l2.003-0.612l0.062-0.021
		L124.45,81.019z M119.197,61.005l-1.225,0.602l-1.9,0.945l-0.934,0.457l-0.239,0.125l-0.083,0.031l-0.727,0.363l-0.82,0.405
		l-0.239,0.114l-0.208,0.104l-0.633,0.311L76.607,82.036l32.221-24.892l0.841-0.654l0.239-0.187l0.561-0.436l0.187-0.135l0.706-0.55
		l0.322-0.249l0.145-0.114l0.27-0.208l0.197-0.156L119.197,61.005z M122.571,70.742l-1.972,0.602l-1.806,0.54l-0.27,0.083
		l-1.733,0.529l-0.176,0.052l-0.893,0.27l-1.1,0.332l-0.924,0.28L75.008,85.14l37.753-18.643l0.27-0.135l0.841-0.415l0.789-0.394
		l0.363-0.176l0.716-0.353l0.54-0.27l1.1-0.54L122.571,70.742z M113.104,51.206l-0.903,0.695l-0.976,0.758l-0.145,0.114
		l-0.073,0.052l-0.477,0.374l-0.042,0.031l-1.131,0.872l-0.031,0.021l-0.021,0.021l-0.415,0.322l-0.093,0.073l-1.111,0.862
		L85.005,72.922l18.072-19.172l1.775-1.879l0.311-0.332l1.173-1.246l1.962-2.076l1.827,1.142L113.104,51.206z"/>
	<path style="fill:#675BF5;" d="M122.249,92.686L128,92.593l-4.183-9.405l4.163-0.571l-6.197-9.467l4.318-1.308l-6.81-8.574
		l3.571-1.765l-9.083-8.19l2.969-2.294l-6.996-4.349l2.408-2.554l-7.453-3.882l-0.249-0.571l-0.716,0.062l-5.356-2.792l-1.796-2.263
		l-0.405-0.519l-4.692-5.906l-4.329,1.111l-5.647-5.086l-4.214,1.661l-5.761-3l-4.069-2.533l-0.374,0.218l-6.135-3.208
		L27.601,42.383l-0.602,0.457l-3.81,2.855h-0.862l-0.041,0.343l-2.74,0.706l-0.945,0.083l0.01,0.166l-5.927,1.516l-1.183,0.208
		l0.031,0.093l-0.125,0.031l0.478,1.059l0.519,1.599L5.979,54.03l1.028,1.329l-5.159,2.979l2.076,1.775L0,63.05L17.335,73.68
		l-4.723,15.062l4.505,0.924L16.91,91.43l4.785,0.426l0.166,2.367l4.381-0.062l0.779,2.387l5.553-0.768l1.733,3.851l5.771-1.744
		l2.533,3.259l5.834-2.875l3.394,2.906l4.505-3.477l3.306,2.262l1.137-1.349l58.483,11.979l-0.955-10.173l6.249,0.55L122.249,92.686
		z M124.824,90.568l-3.156,0.052l-2.149,0.031l-2.118,0.031l-2.086,0.031l-47.77,0.727l0.529-0.561l46.649-6.436l2.066-0.28
		l0.882-0.125l2.076-0.291l1.931-0.26L124.824,90.568z M124.45,81.019l-1.505,0.208l-2.149,0.291l-1.609,0.228l-2.076,0.291
		l-0.519,0.062l-2.055,0.291l-42.715,5.886l42.072-12.737l1.287-0.394l0.737-0.218l1.256-0.384l0.467-0.135l2.003-0.612
		l-0.187-0.394l0.249,0.374L124.45,81.019z M122.571,70.742l-1.972,0.602l-1.806,0.54l-0.27,0.083l-1.733,0.529l-0.176,0.052
		l-0.893,0.27l-1.1,0.332l-0.924,0.28L75.008,85.14l37.753-18.643l0.27-0.135l0.841-0.415l0.789-0.394l0.363-0.176l0.716-0.353
		l0.54-0.27l1.1-0.54L122.571,70.742z M119.197,61.005l-1.225,0.602l-1.9,0.945l-0.934,0.457l-0.239,0.125l-0.083,0.031
		l-0.727,0.363l-0.82,0.405l-0.239,0.114l-0.208,0.104l-0.633,0.311L76.607,82.036l32.221-24.892l0.841-0.654l0.239-0.187
		l0.561-0.436l0.187-0.135l0.706-0.55l0.322-0.249l0.145-0.114l0.27-0.208l0.197-0.156L119.197,61.005z M110.125,49.359l2.979,1.848
		l-0.903,0.695l-0.976,0.758l-0.145,0.114l-0.073,0.052l-0.477,0.374l-0.042,0.031l-1.131,0.872l-0.031,0.021l-0.021,0.021
		l-0.415,0.322l-0.093,0.073l-1.111,0.862L85.005,72.922l18.072-19.172l1.775-1.879l0.311-0.332l1.173-1.246l1.962-2.076
		L110.125,49.359z M90.703,30.591l3.145,3.965l-4.816-3.529L90.703,30.591z M17.512,88.69l-2.471-0.457l0.301-1.048l-0.062-0.01
		l1.048-3.332l2.626-8.989L17.512,88.69z M19.193,88.233l1.484-11.242l0.021,0.083l-0.01,0.083v0.031l0.976,11.501L19.193,88.233z
		 M23.719,91.015l-0.073-1.069l-0.073-1.069l-0.26-3.758l1.287,3.965l0.311,0.976l0.415,1.287L23.719,91.015z M29.532,94.108
		l-1.08,0.145l-0.042-0.135l-0.561-1.723l-0.114-0.343l-0.073-0.228l-0.509-1.567l-0.228-0.695l-4.038-12.477l1.734,1.069
		l5.429,12.052l0.145,0.322l0.675,1.484l0.239,0.519l0.073,0.166l0.498,1.111L29.532,94.108z M35.449,97.119l-0.737-1.63
		l-0.654-1.453l-0.239-0.519l-0.208-0.478l-0.062-0.135l-0.426-0.934l-0.55-1.235l-0.01-0.021l-2.678-5.938l4.775,6.145l0.208,0.27
		l0.581,0.747l0.955,1.215l0.415,0.55l0.228,0.291l0.82,1.059l0.841,1.08L35.449,97.119z M43.213,98.53l-1.007-1.287l-1.36-1.754
		l-0.592-0.768l-0.301-0.374l-0.301-0.394l-0.426-0.54l-0.446-0.581l-0.727-0.934l-0.052-0.073l-0.509-0.654l-5.335-6.861
		l8.315,7.121l0.488,0.426l2.221,1.9l0.156,0.135l0.405,0.353l0.322,0.27l1.028,0.882l0.841,0.716l0.789,0.685L43.213,98.53z
		 M51.912,98.499l-1.443-1.235l-1.173-1.007l-0.54-0.467l-0.467-0.394l-1.547-1.318l-0.322-0.28l-0.374-0.322l-1.661-1.422
		l-0.291-0.249l-0.062-0.052l-6.955-5.958l10.183,6.239l1.64,1.017l0.644,0.394l0.571,0.343l3.301,2.024l1.1,0.675L51.912,98.499z
		 M59.376,96.558L4.723,62.116l56.729-42.269l47.314,24.57L59.376,96.558z M62.459,96.838l1.194-1.266l52.556,4.661l0.727,7.764
		L62.459,96.838z M118.118,98.312l-2.107-0.187l-50.542-4.474l0.093-0.104l49.95-0.768l2.086-0.031l2.491-0.031l1.661,5.917
		L118.118,98.312z"/>
</g>
<g id="Layer_1">
</g>
</svg>
